<svg xmlns="http://www.w3.org/2000/svg" viewBox="0 0 196.56 434.1"><defs><style>.cls-1{fill:#1526ff;}.cls-2{fill:#ddf6fb;}</style></defs><g id="Layer_2" data-name="Layer 2"><g id="Layer_1-2" data-name="Layer 1"><path class="cls-1" d="M61.64,255.52c2-10.85,1.29-21.63,1.44-32.37.05-3.57,1.12-5,4.91-5.23,45.32-2.77,75-33.95,81.74-74,4.3-25.76-3.7-48.68-20.33-68.48C114.17,57.27,94.07,48.2,70.8,45.9,66.93,45.52,66,44,66.06,40.53c.16-11.25.18-22.5.16-33.74C66.21,2.44,68-.13,72.55,0c4.36.13,9.18.07,9.27,6.28.13,8.07,3.85,12.25,12.05,12.48a13.26,13.26,0,0,1,5.48,1.59C106.42,24,112,23.28,116,15.67c1.57-3,4.17-3.45,7.26-1.57,5.91,3.62,12,7,17.92,10.52,3.6,2.1,2.26,5.23.82,7.5-4.42,7-2.06,12,3.81,16.46a19.68,19.68,0,0,1,4,4.09c4.6,6.39,10,9.14,17.52,4.66,3.43-2,5.72-.67,7.38,2.74,1.57,3.22,3.45,6.28,5.22,9.39,5.68,10,5.78,10.11-2.61,18-2.62,2.47-3.28,4.68-2.09,8.13a71.31,71.31,0,0,1,3.91,15.21c.53,4.91,2.88,6.27,7.26,7,10.25,1.6,10.22,1.8,10.2,12.13,0,1.43,0,2.87,0,4.31-.41,13.51,2.6,12.95-12.16,15.84-3.28.65-5.09,1.75-5.43,5.3a25.8,25.8,0,0,1-2.08,6.84c-3.54,8.76-5,16.95,4.81,23,2.34,1.44,1.71,3.38.34,5.52-3.61,5.62-7.12,11.33-10.34,17.18-1.69,3.07-3.68,3.45-6.4,1.88-7.79-4.48-13.85-2.47-18.79,4.68a19,19,0,0,1-4.6,4.51c-5,3.56-6.43,7.72-3.52,13.45,2.36,4.67.81,8.26-4,10.47a71.31,71.31,0,0,0-6.92,3.77c-11,6.59-11,6.63-19.3-2.61-2-2.18-3.79-3.06-6.87-1.88-4.43,1.69-9.07,3.48-13.71,3.8-6.6.46-8.79,4-9.86,9.73a9.71,9.71,0,0,1-13.88,6.75C60.48,260.76,62.73,257.65,61.64,255.52Z"/><path class="cls-1" d="M24.46,338.15c0,7.41-.16,14.82.06,22.22.14,4.79-1,6.48-6.21,4.92C3.14,360.7,3.11,360.87,3,344.87c-.11-17.69-.28-35.37-.37-53.06-.05-8.59,0-8.59,8.34-5.65,1.58.56,3.13,1.18,4.73,1.65,5.55,1.62,7.75,4.9,7.55,11C22.83,311.93,25.36,325,24.46,338.15Z"/><path class="cls-1" d="M43,287.1c2.65,5.88,1.21,12.11,1.4,18.17.28,9.21.11,18.42.13,27.63,1.42,16.45.27,32.92.58,49.37,0,2.39-1,3.71-3.59,2.47-3.28-.63-5.75-2-5.73-5.88,1.33-1.24,3.82.37,4.65-1.72.53-1.35-.87-1.78-1.84-2.27-3.8-.61-2.79-3.46-2.72-5.87.29-1.54,4.43.58,2.73-2.86-6.54-4.63-1.06-5.5,2.46-6.8-1.13-2.52-3.66-2.13-5.18-3.37-1.4-2.83-1.24-4.77,2.58-5,1.18-.08,3.51,1,2.9-2-5.49-1.49-7-5.23-6.89-10.66.22-14.22,0-28.43-.08-42.65-.82-3.63-1.75-7.27.62-10.72C38.38,283.19,40.64,285.42,43,287.1Z"/><path class="cls-1" d="M35.94,285.57c-2.86,3-.9,6.75-1.5,10.11-1.57-15.48-15.83-12.81-25-17-4.65-2.1-7.81-3.73-7.89-9.28C1.12,241.07.68,212.71,0,184.35c-.13-5.33,1.63-8.11,6.75-10.09,12.16-4.69,12-5,12-18.38,0-14.56-.11-29.11,0-43.67,0-2.48-1.08-5.3,1.38-7.38,2.51,2.47,2,5.69,2.08,8.72.12,8.06-.2,16.13.83,24.16,0,9.32-.18,18.64.16,27.95.17,4.8-1.15,7.88-6.1,8.8a3.49,3.49,0,0,0-.66.29c-12.52,5.23-12.52,5.23-12,19,1.36,14.92.21,29.88.64,44.82.08,2.81-.68,5.7.64,8.42l0,22.85c1.56,1.7,3.65,2.57,5.63,3.62,6.14,2.58,12.44,4.72,18.62,7.15C32.43,281.57,35.71,281.79,35.94,285.57Z"/><path class="cls-1" d="M23,137.71c-3.38-1.48-2.92-4.49-2.93-7.31q0-12.78,0-25.57c5.28-2.2,10.58-4.35,15.83-6.64,3.22-1.41,4.32.12,4.79,3,1.38,8.56.63,17.18.66,25.77,0,3.05-2.54,4.37-5.08,5.39Z"/><path class="cls-1" d="M8.64,135.41C9.57,118.2,7,101.08,7.23,83.89c0-2.57-1.24-4.33-2.4-6.43-1.34-2.43-1.81-5.89.55-8a6.44,6.44,0,0,1,7.45-.24c2.68,1.87,2.27,5.54.64,7.78-2.24,3.07-2.05,6.23-2.05,9.53,0,24.11-.05,48.22,1.39,72.31a30.54,30.54,0,0,1,0,3.58c-.14,2.28.7,6-2.19,6-3.4,0-1.89-3.72-1.93-5.79C8.54,153.57,8.64,144.49,8.64,135.41Z"/><path class="cls-1" d="M41.56,384.74c4-.64,2.88-3.79,2.89-6.19.1-15.21.09-30.43.12-45.64,1.53,1.55,1.2,3.53,1.21,5.41.11,26,.15,52,1.46,78,.16,3.07,0,6,2,8.84,1.59,2.29,2.1,5.89-.49,7.81a6.32,6.32,0,0,1-7.42-.14C39.17,431,40,428,40.77,425.45,45.13,412,43.09,398.34,41.56,384.74Z"/><path class="cls-1" d="M12.88,223.92c9,5.22,19.53,6.67,28.72,11.45,1.34,8.35-.29,10.21-7.54,7.22-8-3.31-17.08-4.24-24-10.15v0c-1.34-2.19-.77-4.62-.63-6.92C9.58,223.41,10.91,222.72,12.88,223.92Z"/><path class="cls-1" d="M5.65,247c-2.06-2.51-1.12-5.49-1.14-8.26-.12-15-.11-30-.14-45,1.93,1.68,1.33,4,1.33,6Q5.73,223.38,5.65,247Z"/><path class="cls-1" d="M10,262.65a3.3,3.3,0,0,1,3,1.29c.49,2.64.46,5.18-1.52,7.31l-.06.22c-1.5.41-2.3-.34-2.76-1.65A11.48,11.48,0,0,1,10,262.65Z"/><path class="cls-1" d="M8.65,269.82l2.76,1.65c1.1,1.78.64,2.71-1.48,2.74-2.61-.31-4.31-1.49-4.24-4.38Z"/><path class="cls-1" d="M12.88,223.92c-5.45,1.36-2.14,5.61-2.81,8.54-2.58-1.85-1.81-4.92-1.84-7.19C8.19,221.91,10.49,221.63,12.88,223.92Z"/><path class="cls-1" d="M10,245.44a6.69,6.69,0,0,1,0-8.67l.24.22c1.94,2.72,2.1,5.45,0,8.19Z"/><path class="cls-2" d="M45.62,428.28c-.73-.46-1.62-.7-1.74-1.15-.3-1.18.66-1.64,1.61-1.52a1.85,1.85,0,0,1,1.28,1.19C46.82,427.21,46.1,427.71,45.62,428.28Z"/><path class="cls-1" d="M10.27,245.18,10.21,237l31.38,11.32c1.07,6.39-.87,8.24-7.25,5.59C26.47,250.62,18.31,248.05,10.27,245.18Z"/><path class="cls-1" d="M41.61,261.22c0,8.12-.3,8.28-7.86,5.42-7.8-2.94-15.67-5.67-23.51-8.5,0-7.91.32-8.12,7.24-5.55C25.49,255.56,33.57,258.35,41.61,261.22Z"/><path class="cls-1" d="M11.47,271.25c.27-2.48-1.05-5.3,1.52-7.31l28.5,10.49c1.11,6-.81,7.83-6.76,5.42C27.07,276.76,19.23,274.1,11.47,271.25Z"/></g></g></svg>